C:\Users\r0593348\3dpredictsim\Results\Batchsim_tmt_linear\Pog_s1_tmt_aCst_d05_k2000_ig24_act_GRF.mot
nRows=27
nColumns=19

name C:\Users\r0593348\3dpredictsim\Results\Batchsim_tmt_linear\Pog_s1_tmt_aCst_d05_k2000_ig24_act_GRF.mot
datacolumns 19
datarows 27
range 0.5938024509 0.9025797254
endheader
time 	ground_force_vx	ground_force_vy	ground_force_vz	ground_force_px	ground_force_py	ground_force_pz	1_ground_force_vx	1_ground_force_vy	1_ground_force_vz	1_ground_force_px	1_ground_force_py	1_ground_force_pz	ground_torque_x	ground_torque_y	ground_torque_z	1_ground_torque_x	1_ground_torque_y	1_ground_torque_z
        0.5938024509	      107.6910689227	      438.1682979320	        1.3137095082	        0.3942211925	        0.0000000000	        0.0343998013	      -44.5117280487	       31.6207486552	       -9.1483253043	        0.9114522907	        0.0000000000	       -0.0536193725	        0.0000000000	        0.0000000000	        0.0000000000	        0.0000000000	        0.0000000000	        0.0000000000	
        0.6056784999	       78.3674957399	      340.2012000838	        6.9059998228	        0.4012036266	        0.0000000000	        0.0316795585	     -103.0334564772	       89.5331071566	      -27.5313782961	        0.9223187922	        0.0000000000	       -0.0513313101	        0.0000000000	        0.0000000000	        0.0000000000	        0.0000000000	        0.0000000000	        0.0000000000	
        0.6175545489	       44.8967265324	      233.5583423645	       15.3238377680	        0.4131073466	        0.0000000000	        0.0266205821	     -102.6501735231	      217.0022980701	      -43.6068225697	        0.9294429508	        0.0000000000	       -0.0498899895	        0.0000000000	        0.0000000000	        0.0000000000	        0.0000000000	        0.0000000000	        0.0000000000	
        0.6294305980	       29.0222188350	      176.0883645443	       18.0478728777	        0.4214706470	        0.0000000000	        0.0225565075	      -59.1440509211	      429.8136999332	       -5.3558140413	        0.9342778826	        0.0000000000	       -0.0491200760	        0.0000000000	        0.0000000000	        0.0000000000	        0.0000000000	        0.0000000000	        0.0000000000	
        0.6413066470	       27.3294191908	      139.9880749111	       15.2344350737	        0.4218393348	        0.0000000000	        0.0224540505	      -80.6517805091	      674.4615129532	       14.1258144733	        0.9439508165	        0.0000000000	       -0.0510107287	        0.0000000000	        0.0000000000	        0.0000000000	        0.0000000000	        0.0000000000	        0.0000000000	
        0.6531826960	       17.3417982218	       92.1448211291	       14.0969006136	        0.4220606247	        0.0000000000	        0.0225901033	     -117.2698943705	      852.0985251550	       21.9263410976	        0.9522149534	        0.0000000000	       -0.0528687518	        0.0000000000	        0.0000000000	        0.0000000000	        0.0000000000	        0.0000000000	        0.0000000000	
        0.6650587450	        2.2394139999	       36.9449049570	        8.7097758235	        0.4215983391	        0.0000000000	        0.0227963526	     -131.1166669975	      905.4257642807	       23.1418782756	        0.9574670449	        0.0000000000	       -0.0539338378	        0.0000000000	        0.0000000000	        0.0000000000	        0.0000000000	        0.0000000000	        0.0000000000	
        0.6769347940	        0.2853227457	       -0.2903925181	       -0.0130953845	        0.0000000000	        0.0000000000	        0.0000000000	     -125.0808255479	      893.7741623779	       22.1956947556	        0.9614030156	        0.0000000000	       -0.0544989897	        0.0000000000	        0.0000000000	        0.0000000000	        0.0000000000	        0.0000000000	        0.0000000000	
        0.6888108431	        0.0022754624	       -0.0018463550	        0.0001120862	        0.0000000000	        0.0000000000	        0.0000000000	     -111.3320014716	      852.9922123416	       21.1047617479	        0.9655289136	        0.0000000000	       -0.0546839070	        0.0000000000	        0.0000000000	        0.0000000000	        0.0000000000	        0.0000000000	        0.0000000000	
        0.7006868921	        0.0043294225	       -0.0030064718	        0.0002909339	        0.0000000000	        0.0000000000	        0.0000000000	      -97.7662670910	      804.6476348925	       20.1013152402	        0.9701946444	        0.0000000000	       -0.0545890965	        0.0000000000	        0.0000000000	        0.0000000000	        0.0000000000	        0.0000000000	        0.0000000000	
        0.7125629411	        0.0456622179	       -0.0282332260	        0.0033155978	        0.0000000000	        0.0000000000	        0.0000000000	      -87.7418343143	      764.8017238956	       19.5099456307	        0.9758530076	        0.0000000000	       -0.0542430195	        0.0000000000	        0.0000000000	        0.0000000000	        0.0000000000	        0.0000000000	        0.0000000000	
        0.7244389901	       -0.3169924287	        0.1798267799	       -0.0241475003	        0.0000000000	        0.0000000000	        0.0000000000	      -78.2325731877	      729.8072457735	       19.6242841854	        0.9816146939	        0.0000000000	       -0.0537628758	        0.0000000000	        0.0000000000	        0.0000000000	        0.0000000000	        0.0000000000	        0.0000000000	
        0.7363150391	       -0.2533790304	        0.1352127957	       -0.0185987214	        0.0000000000	        0.0000000000	        0.0000000000	      -68.4924591973	      697.0127624966	       19.6235192719	        0.9868814183	        0.0000000000	       -0.0533662443	        0.0000000000	        0.0000000000	        0.0000000000	        0.0000000000	        0.0000000000	        0.0000000000	
        0.7481910881	       -0.1542184394	        0.0783262769	       -0.0112783919	        0.0000000000	        0.0000000000	        0.0000000000	      -59.4595450984	      669.1878233132	       20.1349896037	        0.9918778595	        0.0000000000	       -0.0530502212	        0.0000000000	        0.0000000000	        0.0000000000	        0.0000000000	        0.0000000000	        0.0000000000	
        0.7600671372	       -0.1050494873	        0.0511990577	       -0.0076909219	        0.0000000000	        0.0000000000	        0.0000000000	      -51.3822779848	      646.4087899796	       20.5444384036	        0.9967718923	        0.0000000000	       -0.0527923487	        0.0000000000	        0.0000000000	        0.0000000000	        0.0000000000	        0.0000000000	        0.0000000000	
        0.7719431862	       -0.0867049398	        0.0408314122	       -0.0063941642	        0.0000000000	        0.0000000000	        0.0000000000	      -43.5652653433	      628.3525685419	       21.1241334616	        1.0020326553	        0.0000000000	       -0.0525216770	        0.0000000000	        0.0000000000	        0.0000000000	        0.0000000000	        0.0000000000	        0.0000000000	
        0.7838192352	       -0.0862801594	        0.0394541369	       -0.0063913546	        0.0000000000	        0.0000000000	        0.0000000000	      -37.3562078992	      614.9398374429	       21.4669795510	        1.0081043664	        0.0000000000	       -0.0521599109	        0.0000000000	        0.0000000000	        0.0000000000	        0.0000000000	        0.0000000000	        0.0000000000	
        0.7956952842	       -0.1006475186	        0.0448678204	       -0.0074394037	        0.0000000000	        0.0000000000	        0.0000000000	      -32.7411859453	      605.9257918761	       21.4495874866	        1.0147562155	        0.0000000000	       -0.0516872583	        0.0000000000	        0.0000000000	        0.0000000000	        0.0000000000	        0.0000000000	        0.0000000000	
        0.8075713332	       -0.1338834969	        0.0583157193	       -0.0098051694	        0.0000000000	        0.0000000000	        0.0000000000	      -28.7772001448	      600.2495476720	       20.9820394760	        1.0217742061	        0.0000000000	       -0.0511176962	        0.0000000000	        0.0000000000	        0.0000000000	        0.0000000000	        0.0000000000	        0.0000000000	
        0.8194473823	       -0.1965198160	        0.0837769850	       -0.0140557376	        0.0000000000	        0.0000000000	        0.0000000000	      -25.5773017318	      596.4934077630	       19.9937351843	        1.0289031509	        0.0000000000	       -0.0504812585	        0.0000000000	        0.0000000000	        0.0000000000	        0.0000000000	        0.0000000000	        0.0000000000	
        0.8313234313	       -0.3045973343	        0.1273436216	       -0.0209956718	        0.0000000000	        0.0000000000	        0.0000000000	      -23.0564205086	      594.0103185273	       19.0703123392	        1.0359064753	        0.0000000000	       -0.0498109186	        0.0000000000	        0.0000000000	        0.0000000000	        0.0000000000	        0.0000000000	        0.0000000000	
        0.8431994803	       -0.4756203250	        0.1954498520	       -0.0313583804	        0.0000000000	        0.0000000000	        0.0000000000	      -20.6625308169	      591.6835194017	       18.6592378691	        1.0426608955	        0.0000000000	       -0.0491317668	        0.0000000000	        0.0000000000	        0.0000000000	        0.0000000000	        0.0000000000	        0.0000000000	
        0.8550755293	       -0.7195809021	        0.2913297056	       -0.0453121463	        0.0000000000	        0.0000000000	        0.0000000000	      -18.1468601876	      588.7248267262	       18.5333328251	        1.0492016832	        0.0000000000	       -0.0484496955	        0.0000000000	        0.0000000000	        0.0000000000	        0.0000000000	        0.0000000000	        0.0000000000	
        0.8669515783	       -1.0275800669	        0.4107964640	       -0.0619063163	        0.0000000000	        0.0000000000	        0.0000000000	      -15.5746402868	      584.8193401545	       18.5048938884	        1.0555347367	        0.0000000000	       -0.0477692393	        0.0000000000	        0.0000000000	        0.0000000000	        0.0000000000	        0.0000000000	        0.0000000000	
        0.8788276273	       -1.3628774535	        0.5392305985	       -0.0787095356	        0.0000000000	        0.0000000000	        0.0000000000	      -12.8814988652	      580.2137800030	       18.5401352425	        1.0616848873	        0.0000000000	       -0.0470885491	        0.0000000000	        0.0000000000	        0.0000000000	        0.0000000000	        0.0000000000	        0.0000000000	
        0.8907036764	       -1.6738401416	        0.6568630872	       -0.0925518109	        0.0000000000	        0.0000000000	        0.0000000000	      -10.0199248014	      575.0393867359	       18.4394773547	        1.0676526873	        0.0000000000	       -0.0464085653	        0.0000000000	        0.0000000000	        0.0000000000	        0.0000000000	        0.0000000000	        0.0000000000	
        0.9025797254	       -1.9210625764	        0.7490412400	       -0.1007477591	        0.0000000000	        0.0000000000	        0.0000000000	       -7.1651594177	      569.6684612201	       17.9310674136	        1.0734452154	        0.0000000000	       -0.0457279496	        0.0000000000	        0.0000000000	        0.0000000000	        0.0000000000	        0.0000000000	        0.0000000000	
